<?xml version="1.0" encoding="iso-8859-1"?>
<!-- Generator: Adobe Illustrator 19.0.0, SVG Export Plug-In . SVG Version: 6.00 Build 0)  -->
<svg version="1.1" id="Capa_1" xmlns="http://www.w3.org/2000/svg" x="0px" y="0px"
     viewBox="0 0 512.001 512.001" style="enable-background:new 0 0 512.001 512.001;" xml:space="preserve">
<path style="fill:#4fAF50;" d="M391.041,131.627L237.868,284.8L26.241,496.427c-2.498-2.527-4.715-5.317-6.613-8.32
	c-5.91-8.674-9.036-18.944-8.96-29.44V117.333C10.668,87.878,34.546,64,64.001,64h213.333c1.939,0.066,3.837,0.577,5.547,1.493
	l98.987,60.373L391.041,131.627z"/>
<path style="fill:#2f9fFf;" d="M464.428,496.427c-2.526,2.499-5.315,4.717-8.32,6.613c-8.674,5.911-18.944,9.037-29.44,8.96H64.001
	c-10.496,0.077-20.766-3.049-29.44-8.96c-3.005-1.897-5.794-4.114-8.32-6.613L237.868,284.8l7.467-7.467l7.467,7.467
	L464.428,496.427z"/>
<g>
	<path style="fill:#FAFAFA;" d="M106.668,192c-23.564,0-42.667-19.103-42.667-42.667s19.103-42.667,42.667-42.667
		s42.667,19.103,42.667,42.667S130.232,192,106.668,192z M106.668,128c-11.782,0-21.333,9.551-21.333,21.333
		s9.551,21.333,21.333,21.333s21.333-9.551,21.333-21.333S118.45,128,106.668,128z"/>
</g>
<path style="fill:#333333;" d="M42.668,490.667c-5.891,0.011-10.675-4.757-10.686-10.648c-0.005-2.84,1.123-5.565,3.134-7.571l266.667-266.667
	c4.237-4.092,10.99-3.975,15.083,0.262c3.992,4.134,3.992,10.687,0,14.82L50.199,487.531
	C48.203,489.533,45.495,490.66,42.668,490.667z"/>
<path style="fill:#333333;" d="M448.001,490.667c-2.831,0.005-5.548-1.115-7.552-3.115L237.783,284.885c-4.092-4.237-3.975-10.99,0.262-15.083
	c4.134-3.992,10.687-3.992,14.82,0l202.667,202.667c4.159,4.172,4.149,10.926-0.023,15.085
	C453.515,489.542,450.816,490.66,448.001,490.667z"/>
<g>
</g>
<g>
</g>
<g>
</g>
<g>
</g>
<g>
</g>
<g>
</g>
<g>
</g>
<g>
</g>
<g>
</g>
<g>
</g>
<g>
</g>
<g>
</g>
<g>
</g>
<g>
</g>
<g>
</g>
</svg>
