<svg width="512.001" height="512.001" xmlns="http://www.w3.org/2000/svg">

 <g>
  <title>background</title>
  <rect fill="none" id="canvas_background" height="602" width="802" y="-1" x="-1"/>
 </g>
 <g>
  <title>Layer 1</title>
  <path id="svg_1" fill="#4fAF50" d="m391.041,131.627l-153.173,153.173l-211.627,211.627c-2.498,-2.527 -4.715,-5.317 -6.613,-8.32c-5.91,-8.674 -9.036,-18.944 -8.96,-29.44l0,-341.334c0,-29.455 23.878,-53.333 53.333,-53.333l213.333,0c1.939,0.066 3.837,0.577 5.547,1.493l98.987,60.373l9.173,5.761z"/>
  <path id="svg_2" fill="#2f9fFf" d="m464.428,496.427c-2.526,2.499 -5.315,4.717 -8.32,6.613c-8.674,5.911 -18.944,9.037 -29.44,8.96l-362.667,0c-10.496,0.077 -20.766,-3.049 -29.44,-8.96c-3.005,-1.897 -5.794,-4.114 -8.32,-6.613l211.627,-211.627l7.467,-7.467l7.467,7.467l211.626,211.627z"/>
  <g id="svg_3">
   <path id="svg_4" fill="#FAFAFA" d="m106.668,192c-23.564,0 -42.667,-19.103 -42.667,-42.667s19.103,-42.667 42.667,-42.667s42.667,19.103 42.667,42.667s-19.103,42.667 -42.667,42.667zm0,-64c-11.782,0 -21.333,9.551 -21.333,21.333s9.551,21.333 21.333,21.333s21.333,-9.551 21.333,-21.333s-9.551,-21.333 -21.333,-21.333z"/>
  </g>
  <path stroke-width="64" stroke="null" id="svg_5" fill="#333333" d="m40.08762,490.87999c-4.45855,0.00871 -8.07928,-3.76555 -8.08761,-8.42874c-0.00378,-2.24809 0.84993,-4.40514 2.37194,-5.99305l201.82463,-211.08822c3.20674,-3.23914 8.31769,-3.14653 11.41544,0.20739c3.02131,3.27239 3.02131,8.45961 0,11.73121l-201.82463,211.08901c-1.51066,1.58474 -3.56018,2.47685 -5.69977,2.48239z"/>
  <path id="svg_6" fill="#333333" d="m448.001,490.667c-2.831,0.005 -5.548,-1.115 -7.552,-3.115l-202.666,-202.667c-4.092,-4.237 -3.975,-10.99 0.262,-15.083c4.134,-3.992 10.687,-3.992 14.82,0l202.667,202.667c4.159,4.172 4.149,10.926 -0.023,15.085c-1.994,1.988 -4.693,3.106 -7.508,3.113z"/>
 </g>
</svg>
